<svg width="14" height="18" viewBox="0 0 14 18" fill="none" xmlns="http://www.w3.org/2000/svg">
<path d="M7 15.4813L2.8 17.339C2.13333 17.6315 1.5 17.5757 0.9 17.1718C0.3 16.768 0 16.1958 0 15.4555V2.06417C0 1.49652 0.196 1.01076 0.588 0.606866C0.98 0.202977 1.45067 0.000688057 2 0H12C12.55 0 13.021 0.202289 13.413 0.606866C13.805 1.01144 14.0007 1.49721 14 2.06417V15.4555C14 16.1951 13.7 16.7673 13.1 17.1718C12.5 17.5764 11.8667 17.6322 11.2 17.339L7 15.4813ZM7 13.2107L12 15.4297V2.06417H2V15.4297L7 13.2107ZM7 2.06417H2H12H7Z" fill="white"/>
</svg>
