<svg width="20" height="20" viewBox="0 0 20 20" fill="none" xmlns="http://www.w3.org/2000/svg">
<path d="M7.575 12.975L1.675 18.875C1.49167 19.0583 1.25833 19.15 0.975 19.15C0.691667 19.15 0.458333 19.0583 0.275 18.875C0.0916668 18.6917 0 18.4583 0 18.175C0 17.8917 0.0916668 17.6583 0.275 17.475L6.175 11.575H2.575C2.29167 11.575 2.05433 11.479 1.863 11.287C1.67167 11.095 1.57567 10.8577 1.575 10.575C1.57433 10.2923 1.67033 10.055 1.863 9.863C2.05567 9.671 2.293 9.575 2.575 9.575H8.575C8.85833 9.575 9.096 9.671 9.288 9.863C9.48 10.055 9.57567 10.2923 9.575 10.575V16.575C9.575 16.8583 9.479 17.096 9.287 17.288C9.095 17.48 8.85767 17.5757 8.575 17.575C8.29233 17.5743 8.055 17.4783 7.863 17.287C7.671 17.0957 7.575 16.8583 7.575 16.575V12.975ZM12.975 7.575H16.575C16.8583 7.575 17.096 7.671 17.288 7.863C17.48 8.055 17.5757 8.29233 17.575 8.575C17.5743 8.85767 17.4783 9.09533 17.287 9.288C17.0957 9.48067 16.8583 9.57633 16.575 9.575H10.575C10.2917 9.575 10.0543 9.479 9.863 9.287C9.67167 9.095 9.57567 8.85767 9.575 8.575V2.575C9.575 2.29167 9.671 2.05433 9.863 1.863C10.055 1.67167 10.2923 1.57567 10.575 1.575C10.8577 1.57433 11.0953 1.67033 11.288 1.863C11.4807 2.05567 11.5763 2.293 11.575 2.575V6.175L17.475 0.275C17.6583 0.0916668 17.8917 0 18.175 0C18.4583 0 18.6917 0.0916668 18.875 0.275C19.0583 0.458333 19.15 0.691667 19.15 0.975C19.15 1.25833 19.0583 1.49167 18.875 1.675L12.975 7.575Z" fill="white"/>
</svg>
