<svg width="19" height="19" viewBox="0 0 19 19" fill="none" xmlns="http://www.w3.org/2000/svg">
<path d="M9.50096 5.72222V9.5L12.3346 12.3333M1.21063 11.3889C1.56624 12.9489 2.35499 14.3769 3.48617 15.5086C4.61735 16.6404 6.04503 17.4299 7.60502 17.7863C9.16501 18.1428 10.7939 18.0518 12.3045 17.5238C13.8151 16.9957 15.1459 16.0521 16.1439 14.8014C17.142 13.5507 17.7667 12.0438 17.9463 10.4539C18.1259 8.86394 17.853 7.25562 17.159 5.81387C16.4651 4.37213 15.3783 3.1555 14.0235 2.30391C12.6688 1.45233 11.1012 1.00036 9.50096 1C7.82897 0.999547 6.19398 1.4921 4.80053 2.41603C3.40709 3.33996 2.31707 4.65424 1.66685 6.19444M4.7782 6.66667H1V2.88889" stroke="white" stroke-width="2" stroke-linecap="round" stroke-linejoin="round"/>
</svg>
