<svg width="11" height="15" viewBox="0 0 11 15" fill="none" xmlns="http://www.w3.org/2000/svg">
<path d="M1.375 15C0.996875 15 0.673292 14.8602 0.40425 14.5807C0.135208 14.3012 0.000458333 13.9648 0 13.5714V6.42857C0 6.03571 0.13475 5.69952 0.40425 5.42C0.67375 5.14048 0.997333 5.00048 1.375 5H2.0625V3.57143C2.0625 2.58333 2.39777 1.74119 3.06831 1.045C3.73885 0.34881 4.54942 0.000476678 5.5 4.87567e-07C6.45058 -0.000475703 7.26137 0.347858 7.93237 1.045C8.60337 1.74214 8.93842 2.58429 8.9375 3.57143V5H9.625C10.0031 5 10.3269 5.14 10.5964 5.42C10.8659 5.7 11.0005 6.03619 11 6.42857V13.5714C11 13.9643 10.8655 14.3007 10.5964 14.5807C10.3274 14.8607 10.0036 15.0005 9.625 15H1.375ZM6.47144 11.0093C6.74048 10.7293 6.875 10.3929 6.875 10C6.875 9.60714 6.74048 9.27095 6.47144 8.99143C6.2024 8.71191 5.87858 8.57191 5.5 8.57143C5.12142 8.57095 4.79783 8.71095 4.52925 8.99143C4.26067 9.2719 4.12592 9.6081 4.125 10C4.12408 10.3919 4.25883 10.7283 4.52925 11.0093C4.79967 11.2902 5.12325 11.43 5.5 11.4286C5.87675 11.4271 6.20056 11.2874 6.47144 11.0093ZM3.4375 5H7.5625V3.57143C7.5625 2.97619 7.36198 2.47024 6.96094 2.05357C6.5599 1.63691 6.07292 1.42857 5.5 1.42857C4.92708 1.42857 4.4401 1.63691 4.03906 2.05357C3.63802 2.47024 3.4375 2.97619 3.4375 3.57143V5Z" fill="#C41039"/>
</svg>
