<svg width="16" height="20" viewBox="0 0 16 20" fill="none" xmlns="http://www.w3.org/2000/svg">
<path d="M7.83784 17.2014L3.13513 19.2656C2.38867 19.5905 1.67954 19.5286 1.00772 19.0798C0.335907 18.6311 0 17.9954 0 17.1728V2.29352C0 1.6628 0.219459 1.12306 0.658378 0.674296C1.0973 0.22553 1.6243 0.000764508 2.23938 0H13.4363C14.0521 0 14.5795 0.224765 15.0184 0.674296C15.4573 1.12383 15.6764 1.66357 15.6757 2.29352V17.1728C15.6757 17.9946 15.3398 18.6303 14.668 19.0798C13.9961 19.5294 13.287 19.5913 12.5405 19.2656L7.83784 17.2014ZM7.83784 14.6786L13.4363 17.1441V2.29352H2.23938V17.1441L7.83784 14.6786ZM7.83784 2.29352H2.23938H13.4363H7.83784Z" fill="#87878A"/>
</svg>
