<svg width="21" height="23" viewBox="0 0 21 23" fill="none" xmlns="http://www.w3.org/2000/svg">
<path d="M17.3962 19.4444L11.6796 13.7278C11.2258 14.0907 10.7041 14.3781 10.1143 14.5898C9.52446 14.8015 8.89683 14.9074 8.2314 14.9074C6.58294 14.9074 5.18796 14.3363 4.04644 13.1942C2.90492 12.0521 2.33386 10.6571 2.33325 9.00923C2.33265 7.36138 2.90371 5.96639 4.04644 4.82427C5.18917 3.68215 6.58415 3.11108 8.2314 3.11108C9.87865 3.11108 11.2739 3.68215 12.4173 4.82427C13.5606 5.96639 14.1314 7.36138 14.1295 9.00923C14.1295 9.67466 14.0237 10.3023 13.812 10.8921C13.6002 11.4819 13.3129 12.0037 12.9499 12.4574L18.6666 18.174L17.3962 19.4444ZM8.2314 13.0926C9.36566 13.0926 10.3299 12.6957 11.1242 11.902C11.9185 11.1084 12.3153 10.1441 12.3147 9.00923C12.3141 7.87437 11.9173 6.9104 11.1242 6.11733C10.3311 5.32425 9.36687 4.92711 8.2314 4.9259C7.09593 4.92469 6.13196 5.32183 5.33949 6.11733C4.54702 6.91282 4.14988 7.87679 4.14807 9.00923C4.14625 10.1417 4.54339 11.1059 5.33949 11.902C6.13559 12.6981 7.09956 13.095 8.2314 13.0926Z" fill="white"/>
</svg>
