<svg width="21" height="19" viewBox="0 0 21 19" fill="none" xmlns="http://www.w3.org/2000/svg">
<path d="M20.6926 8.75371L12.2925 0.30906C12.1456 0.16148 11.9586 0.060982 11.7549 0.0202708C11.5513 -0.0204403 11.3402 0.000463348 11.1483 0.0803392C10.9565 0.160215 10.7925 0.295477 10.6771 0.469024C10.5618 0.642572 10.5002 0.846614 10.5001 1.05536V4.79739C7.63179 5.06423 4.96574 6.3975 3.02371 8.53629C1.08167 10.6751 0.00343535 13.4654 0 16.3613V17.9446C0.00016575 18.1638 0.0681559 18.3774 0.19454 18.5559C0.320924 18.7344 0.499437 18.869 0.705319 18.9409C0.911201 19.0129 1.13425 19.0186 1.34352 18.9573C1.55279 18.8961 1.73792 18.7709 1.87322 18.5991C2.90207 17.3695 4.16428 16.3582 5.58616 15.6244C7.00804 14.8906 8.5611 14.4489 10.1547 14.3251C10.2072 14.3187 10.3384 14.3082 10.5001 14.2976V17.9446C10.5002 18.1534 10.5618 18.3574 10.6771 18.531C10.7925 18.7045 10.9565 18.8398 11.1483 18.9197C11.3402 18.9995 11.5513 19.0204 11.7549 18.9797C11.9586 18.939 12.1456 18.8385 12.2925 18.6909L20.6926 10.2463C20.8894 10.0483 21 9.7799 21 9.5C21 9.2201 20.8894 8.95166 20.6926 8.75371ZM12.6001 15.3965V13.1945C12.6001 12.9146 12.4895 12.6461 12.2926 12.4481C12.0957 12.2502 11.8286 12.139 11.5501 12.139C11.2824 12.139 10.1893 12.1917 9.91001 12.2287C7.08001 12.4905 4.38618 13.5714 2.15462 15.3405C2.40793 13.0124 3.50655 10.86 5.24014 9.29539C6.97372 7.73082 9.22044 6.86405 11.5501 6.86105C11.8286 6.86105 12.0957 6.74984 12.2926 6.55188C12.4895 6.35392 12.6001 6.08543 12.6001 5.80547V3.60353L18.4655 9.5L12.6001 15.3965Z" fill="#87878A"/>
</svg>
