<svg width="48" height="48" viewBox="0 0 48 48" fill="none" xmlns="http://www.w3.org/2000/svg">
<g clip-path="url(#clip0_259_2235)">
<path d="M48 0H0V48H48V0Z" fill="#C41039"/>
<path d="M21.4776 17.9497H16.0905V33.5718H11.6489V17.9497H6.26187V14.4282H21.4776V17.9497Z" fill="white"/>
<path d="M41.7381 14.4282L34.0645 33.5718H30.0439L22.3703 14.4282H25.9445C26.3298 14.4282 26.6403 14.5177 26.8772 14.6977C27.1141 14.8778 27.2931 15.1073 27.4162 15.3883L31.1209 25.6371C31.2957 26.0834 31.4673 26.5719 31.6336 27.1015C31.8 27.6321 31.9579 28.1858 32.1063 28.7638C32.2295 28.1858 32.3674 27.6321 32.5201 27.1015C32.6738 26.5719 32.838 26.0834 33.0138 25.6371L36.6922 15.3883C36.789 15.1431 36.9617 14.922 37.2123 14.7241C37.4618 14.5272 37.7702 14.4282 38.1376 14.4282H41.7381Z" fill="white"/>
</g>
<defs>
<clipPath id="clip0_259_2235">
<rect width="48" height="48" rx="10" fill="white"/>
</clipPath>
</defs>
</svg>
